<?xml version="1.0" encoding="UTF-8"?>
<!DOCTYPE svg PUBLIC "-//W3C//DTD SVG 1.1//EN" "http://www.w3.org/Graphics/SVG/1.1/DTD/svg11.dtd">
<!-- Creator: CorelDRAW 2020 (64-Bit) -->
<svg xmlns="http://www.w3.org/2000/svg" xml:space="preserve" width="166px" height="133px" version="1.1" style="shape-rendering:geometricPrecision; text-rendering:geometricPrecision; image-rendering:optimizeQuality; fill-rule:evenodd; clip-rule:evenodd"
viewBox="0 0 16.865 13.486"
 xmlns:xlink="http://www.w3.org/1999/xlink"
 xmlns:xodm="http://www.corel.com/coreldraw/odm/2003">
 <defs>
  <style type="text/css">
   <![CDATA[
    .fil0 {fill:black}
   ]]>
  </style>
 </defs>
 <g id="Слой_x0020_1">
  <metadata id="CorelCorpID_0Corel-Layer"/>
  <path class="fil0" d="M0 2.657l0 0.122 1.214 1.459c0.418,0.497 0.822,0.96 1.233,1.459 0.661,0.803 0.623,0.749 1.944,0.74 0.378,-0.002 2.489,-0.044 2.672,-0.007 -0.042,-0.116 -0.623,-0.588 -0.762,-0.706l-2.851 -2.484c-0.131,-0.11 -0.393,-0.378 -0.525,-0.445 0.049,-0.05 0.053,-0.055 0.175,-0.07l1.402 -0.154c0.682,-0.083 4.712,-0.548 4.835,-0.508l3.727 1.642c0.236,0.103 1.066,0.452 1.232,0.552l-7.185 2.154c0.049,0.144 0.341,0.545 0.457,0.714 0.229,0.335 1.245,1.97 1.454,2.1 0.316,0.196 0.62,0.038 0.916,-0.06 0.304,-0.1 0.595,-0.19 0.897,-0.289 1.771,-0.586 3.622,-1.147 5.372,-1.74 0.492,-0.168 0.415,-0.283 0.176,-0.639 -0.158,-0.234 -0.305,-0.482 -0.462,-0.722 -0.163,-0.246 -0.305,-0.475 -0.468,-0.717 -0.09,-0.135 -0.427,-0.633 -0.457,-0.753 0.238,-0.093 0.755,-0.695 0.951,-0.904 0.312,-0.332 0.55,-0.538 0.875,-0.905 0.037,-0.043 0.012,-0.017 0.043,-0.047l0 -0.156c-0.159,-0.179 -0.192,-0.153 -0.454,-0.239 -1.14,-0.371 -2.487,-0.764 -3.632,-1.111 -0.36,-0.109 -0.692,-0.211 -1.053,-0.323 -1.211,-0.373 -1.097,-0.381 -1.867,0.358l-0.681 0.681c-0.091,-0.166 -0.828,-1.02 -1.005,-1.256 -0.129,-0.172 -0.163,-0.287 -0.384,-0.375 -0.216,-0.085 -1.04,0.047 -1.325,0.087l-2.665 0.323c-0.397,0.047 -0.939,0.082 -1.319,0.163 -0.257,0.056 -0.293,0.228 -0.198,0.466 0.127,0.316 0.55,1.475 0.593,1.679 -0.497,-0.023 -0.992,-0.048 -1.475,-0.088 -0.283,-0.024 -1.197,-0.131 -1.4,-0.001z"/>
  <path class="fil0" d="M3.225 6.951c-0.014,0.29 -0.032,1.185 0.024,1.42 0.053,0.222 0.154,0.328 0.266,0.461l2.595 3.118c0.057,0.067 0.105,0.13 0.159,0.191l0.491 0.585c0.54,0.685 0.628,0.909 1.235,0.664 1.376,-0.554 2.711,-1.091 4.079,-1.632 0.335,-0.132 0.68,-0.286 1.016,-0.41 0.333,-0.123 0.777,-0.25 0.917,-0.51 0.077,-0.144 0.32,-2.235 0.322,-2.529 -0.168,0.026 -2.07,0.667 -2.277,0.736 -0.754,0.25 -1.523,0.489 -2.276,0.742 -1.024,0.344 -0.968,0.143 -1.381,-0.502 -0.101,-0.158 -0.183,-0.299 -0.284,-0.469 -0.068,-0.116 -1.055,-1.838 -1.16,-1.865l-3.726 0z"/>
 </g>
</svg>
