<?xml version="1.0" encoding="UTF-8"?>
<!DOCTYPE svg PUBLIC "-//W3C//DTD SVG 1.1//EN" "http://www.w3.org/Graphics/SVG/1.1/DTD/svg11.dtd">
<!-- Creator: CorelDRAW 2020 (64-Bit) -->
<svg xmlns="http://www.w3.org/2000/svg" xml:space="preserve" width="119px" height="119px" version="1.1" style="shape-rendering:geometricPrecision; text-rendering:geometricPrecision; image-rendering:optimizeQuality; fill-rule:evenodd; clip-rule:evenodd"
viewBox="0 0 3.656 3.655"
 xmlns:xlink="http://www.w3.org/1999/xlink"
 xmlns:xodm="http://www.corel.com/coreldraw/odm/2003">
 <defs>
  <style type="text/css">
   <![CDATA[
    .fil0 {fill:#999999}
   ]]>
  </style>
 </defs>
 <g id="Слой_x0020_1">
  <metadata id="CorelCorpID_0Corel-Layer"/>
  <path class="fil0" d="M0.906 1.85c0,-0.298 0.353,-0.239 0.715,-0.239l0 -0.429c0,-0.397 0.382,-0.305 0.382,-0.095l0 0.524c0.362,0 0.715,-0.059 0.715,0.239 0,0.262 -0.352,0.19 -0.715,0.19 0,0.645 0.069,0.762 -0.334,0.668 -0.076,-0.326 -0.048,-0.277 -0.048,-0.668 -0.279,0 -0.715,0.063 -0.715,-0.19zm-0.906 -0.096c0,0.565 0.201,1.06 0.535,1.373 1.461,1.367 3.717,-0.142 2.975,-2.022 -0.375,-0.952 -1.815,-1.605 -2.95,-0.603 -0.265,0.234 -0.56,0.77 -0.56,1.252z"/>
 </g>
</svg>
