<?xml version="1.0" encoding="UTF-8"?>
<!DOCTYPE svg PUBLIC "-//W3C//DTD SVG 1.1//EN" "http://www.w3.org/Graphics/SVG/1.1/DTD/svg11.dtd">
<!-- Creator: CorelDRAW 2020 (64-Bit) -->
<svg xmlns="http://www.w3.org/2000/svg" xml:space="preserve" width="182px" height="203px" version="1.1" style="shape-rendering:geometricPrecision; text-rendering:geometricPrecision; image-rendering:optimizeQuality; fill-rule:evenodd; clip-rule:evenodd"
viewBox="0 0 8.572 9.55"
 xmlns:xlink="http://www.w3.org/1999/xlink"
 xmlns:xodm="http://www.corel.com/coreldraw/odm/2003">
 <defs>
  <style type="text/css">
   <![CDATA[
    .fil0 {fill:black}
   ]]>
  </style>
 </defs>
 <g id="Слой_x0020_1">
  <metadata id="CorelCorpID_0Corel-Layer"/>
  <g id="_2351525403296">
   <path class="fil0" d="M1.623 5.479c-0.309,0.126 -1.07,0.985 -1.312,1.223 -0.34,0.337 -0.401,1.53 -0.184,2.054 0.271,0.658 0.831,0.795 1.704,0.794l4.987 0c0.825,0.001 1.394,-0.193 1.622,-0.832 0.216,-0.607 0.173,-1.634 -0.178,-2.07 -0.276,-0.343 -0.866,-1.063 -1.214,-1.23l-0.492 0.548c-0.892,0.889 -2.607,1.151 -3.841,0.463 -0.37,-0.207 -0.938,-0.633 -1.092,-0.95z"/>
   <path class="fil0" d="M3.757 0.064c-1.317,0.279 -2.46,1.511 -2.131,3.202 0.258,1.326 1.586,2.469 3.23,2.131 1.293,-0.266 2.429,-1.552 2.122,-3.186 -0.249,-1.327 -1.557,-2.5 -3.221,-2.147z"/>
  </g>
 </g>
</svg>
